<svg id="cblogo" version="1.1" xmlns="http://www.w3.org/2000/svg" xmlns:xlink="http://www.w3.org/1999/xlink" x="0px" y="0px" viewBox="0 0 786.1 785.9" style="enable-background:new 0 0 786.1 785.9;" xml:space="preserve"><style>#cblogopath{fill:rgba(0,197,135,1);}</style><g><path id="cblogopath" d="M393.5,785.9l-4.2-1.2c-49.6-17.7-91.4-51.9-118.6-96.3c-17.6,4.3-35.7,6.4-53.7,6.4c-33.7,0-67.3-7.4-98.4-22.2l-3.8-1.8
		l-1.6-4c-22.4-47.4-27.6-101-15.5-151.4c-17.4-10.6-33.3-23.5-47.4-38.5C28.7,454,12.4,427.4,1.7,397.8L0,393l1.3-3.7		c17.7-49.7,51.9-91.5,96.4-118.7c-12.2-50.6-6.9-104.4,15.8-152l0.3-0.6l2-3.3l3-1.5c47.6-22.6,101.4-27.9,152-15.7		c27.1-44.3,68.8-78.6,118.4-96.3L393,0l3.8,1.5c1,0.4,25.2,10,53.8,30.4C477.4,51,499.3,73.4,515,97.7		c50.7-12.3,104.5-7,152.2,15.6c0.2,0.1,0.7,0.3,0.7,0.3l3,1.6l1.8,3.5c22.6,47.6,27.9,101.4,15.7,151.9		c44.4,27.2,78.7,69,96.4,118.7l1.3,3.7l-1.4,4.1c-17.7,49.5-52,91.2-96.2,118.3c12.2,50.6,6.9,104.4-15.7,151.9l-0.2,0.5l-2.1,3.4		l-4.2,2c-28.5,13.3-58.9,20.6-90.2,21.5c-20.6,0.6-40.8-1.5-60.6-6.3c-27.2,44.4-69,78.6-118.6,96.3L393.5,785.9z M292.6,681.9		c23.9,36.6,59,65.1,100.4,80.8c41.4-15.6,76.5-44.1,100.4-80.7c-4-1.4-7.9-2.9-11.9-4.5c-35-14.5-65.2-37.1-88.5-65.3
		c-23.4,28.2-53.5,50.8-88.5,65.3C300.6,679,296.6,680.5,292.6,681.9z M131.7,654.4c40.3,18.2,85.3,22.9,128.1,13.9		c-1.8-3.8-3.6-7.7-5.2-11.6c-14.5-35-19.8-72.3-16.4-108.8c-7.1,0.7-14.2,1-21.3,1c-29.6,0-59.3-5.7-87.5-17.4		c-3.9-1.6-7.8-3.4-11.6-5.2C108.7,569.1,113.4,614.1,131.7,654.4z M526.3,668.3c42.8,9,87.8,4.3,128.1-13.9		c18.2-40.3,22.9-85.3,13.9-128.1c-3.8,1.8-7.7,3.6-11.6,5.2c-28.2,11.7-57.9,17.4-87.5,17.4c-7.1,0-14.2-0.3-21.3-1		c3.4,36.5-1.9,73.8-16.4,108.8C529.9,660.6,528.2,664.5,526.3,668.3z M260.6,544.7c-4.1,34.6,0.5,70.3,14.3,103.6		c2,4.8,4.2,9.6,6.5,14.2c4.9-1.6,9.8-3.4,14.7-5.4c33.3-13.8,61.8-35.8,83.3-63.2c-16.9-25-28.9-53.5-34.9-83.8		C318.9,527.3,290.3,538.9,260.6,544.7z M406.6,593.9c21.6,27.4,50,49.4,83.3,63.2c4.8,2,9.7,3.8,14.7,5.4c2.3-4.6,4.5-9.4,6.5-14.2		c13.8-33.3,18.4-69,14.3-103.6c-29.7-5.8-58.2-17.4-83.9-34.6C435.5,540.4,423.5,568.9,406.6,593.9z M361.6,471.8l2,17.5		c3.5,30.7,13.8,59.7,29.5,85.1c15.7-25.4,25.9-54.3,29.4-85l0.1-0.6l4-17.8l13.7,10.9c24.2,19.2,51.9,32.5,81,39.4		c-6.9-29-20.1-56.7-39.3-80.9l-0.7-0.9l-9.7-14.9l17.7-2C520,419,549,408.7,574.4,393c-25.5-15.7-54.4-25.9-85.2-29.5l-22-2.5		l15-15.8c18.9-24,31.9-51.5,38.7-80.5c-29,6.9-56.6,20.1-80.8,39.3L423,317.9l-0.6-21.7c-3.6-30.5-13.8-59.2-29.4-84.5		c-15.7,25.5-25.9,54.4-29.5,85.2l-2.5,22l-15.8-15c-24.1-19-51.6-32.1-80.5-39c6.9,29.1,20.1,56.8,39.4,81l13.8,17.3l-21.8,0.5		c-30.5,3.6-59.2,13.8-84.5,29.4c25.4,15.7,54.3,25.9,85,29.4l0.5,0.1l18,3.9l-11,13.9c-19.2,24.2-32.5,51.9-39.4,81		c29.1-6.9,56.7-20.1,80.9-39.3l0.4-0.4L361.6,471.8z M544.7,525.4c34.6,4.1,70.3-0.5,103.6-14.3c4.8-2,9.6-4.2,14.2-6.5		c-1.6-4.9-3.4-9.8-5.4-14.7c-13.8-33.3-35.8-61.8-63.2-83.3c-25,16.9-53.5,28.9-83.8,34.9C527.3,467.2,538.9,495.8,544.7,525.4z		 M123.6,504.6c4.6,2.4,9.4,4.5,14.2,6.5c33.3,13.8,69,18.4,103.6,14.3c5.8-29.7,17.4-58.2,34.6-83.9c-30.4-6-58.8-18-83.8-34.9		c-27.4,21.6-49.4,50-63.2,83.3C127,494.8,125.2,499.7,123.6,504.6z M612.1,393c28.2,23.4,50.8,53.5,65.3,88.5
		c1.6,3.9,3.1,7.9,4.5,11.9c36.6-23.9,65.1-59,80.8-100.4c-15.6-41.4-44.1-76.5-80.7-100.4c-1.4,4-2.9,8-4.5,11.9		C662.9,339.5,640.3,369.6,612.1,393z M23.4,393c15.6,41.4,44.1,76.5,80.8,100.4c1.4-4,2.9-8,4.5-11.9c14.5-35,37.1-65.2,65.3-88.5
		c-28.2-23.4-50.8-53.5-65.3-88.5c-1.6-3.9-3.1-7.9-4.5-11.9C67.5,316.5,39,351.6,23.4,393z M123.6,281.4c1.6,4.9,3.4,9.8,5.4,14.7		c13.8,33.3,35.8,61.8,63.2,83.3c25-16.9,53.5-28.9,83.8-34.9c-17.2-25.7-28.9-54.3-34.6-83.9c-34.6-4.1-70.3,0.5-103.6,14.3
		C133,276.9,128.2,279,123.6,281.4z M510.1,344.5c30.4,6,58.8,18,83.9,34.9c27.4-21.6,49.4-50,63.2-83.3c2-4.8,3.8-9.7,5.4-14.7		c-4.6-2.3-9.4-4.5-14.2-6.5c-33.4-13.8-69.1-18.4-103.7-14.3C538.8,290.7,527,319.2,510.1,344.5z M406.6,192.1		c16.9,25,28.9,53.5,34.9,83.8c25.6-17.2,54.1-28.8,83.6-34.6c4.1-34.5-0.5-70.2-14-103.7c-2-4.9-4.2-9.6-6.5-14.1		c-4.9,1.6-9.8,3.4-14.6,5.4C456.7,142.8,428.2,164.7,406.6,192.1z M260.6,241.3c29.7,5.8,58.2,17.4,83.9,34.6		c6-30.4,18-58.8,34.9-83.8c-21.6-27.4-50-49.4-83.3-63.2c-4.8-2-9.7-3.8-14.7-5.4c-2.3,4.6-4.5,9.4-6.5,14.2		C261.1,171.1,256.5,206.7,260.6,241.3z M131.7,131.6c-18.3,40.3-23,85.3-13.9,128.1c3.8-1.8,7.7-3.6,11.6-5.2		c35-14.5,72.3-19.8,108.8-16.4c-3.4-36.5,1.9-73.8,16.4-108.8c1.6-3.9,3.4-7.8,5.2-11.6C217,108.7,172,113.4,131.7,131.6z		 M569.2,237.1c29.6,0,59.3,5.7,87.5,17.4c3.9,1.6,7.8,3.4,11.6,5.2c9-42.8,4.3-87.8-13.9-128.1c-40.3-18.2-85.3-22.9-128.1-13.9		c1.9,3.9,3.6,7.8,5.2,11.7c14,34.7,19.6,72,16.2,108.7C554.9,237.5,562,237.1,569.2,237.1z M292.6,104.1c4,1.4,8,2.9,11.9,4.5		c35,14.5,65.1,37.1,88.5,65.3c23.4-28.2,53.5-50.8,88.5-65.3c3.8-1.6,7.6-3,11.4-4.4C459.2,55.8,406.8,30,392.5,23.6		C351.3,39.3,316.4,67.7,292.6,104.1z"></path></g></svg>